<?xml version="1.0" encoding="UTF-8" standalone="no"?>
<svg
   xmlns:dc="http://purl.org/dc/elements/1.1/"
   xmlns:cc="http://creativecommons.org/ns#"
   xmlns:rdf="http://www.w3.org/1999/02/22-rdf-syntax-ns#"
   xmlns:svg="http://www.w3.org/2000/svg"
   xmlns="http://www.w3.org/2000/svg"
   xmlns:sodipodi="http://sodipodi.sourceforge.net/DTD/sodipodi-0.dtd"
   xmlns:inkscape="http://www.inkscape.org/namespaces/inkscape"
   version="1.1"
   x="0px"
   y="0px"
   viewBox="0 0 32 32"
   enable-background="new 0 0 40 40"
   xml:space="preserve"
   id="svg35"
   sodipodi:docname="Bitcoin.svg"
   width="32"
   height="32"
   inkscape:version="0.92.4 5da689c313, 2019-01-14"><metadata
     id="metadata41"><rdf:RDF><cc:Work
         rdf:about=""><dc:format>image/svg+xml</dc:format><dc:type
           rdf:resource="http://purl.org/dc/dcmitype/StillImage" /><dc:title></dc:title></cc:Work></rdf:RDF></metadata><defs
     id="defs39" /><sodipodi:namedview
     pagecolor="#ffffff"
     bordercolor="#666666"
     borderopacity="1"
     objecttolerance="10"
     gridtolerance="10"
     guidetolerance="10"
     inkscape:pageopacity="0"
     inkscape:pageshadow="2"
     inkscape:window-width="640"
     inkscape:window-height="480"
     id="namedview37"
     showgrid="false"
     inkscape:zoom="4.72"
     inkscape:cx="20"
     inkscape:cy="31.362038"
     inkscape:window-x="22"
     inkscape:window-y="124"
     inkscape:window-maximized="0"
     inkscape:current-layer="svg35" /><path
     d="m 16.398305,2.6186441 c -7.6999999,0 -13.9999999,6.3000003 -13.9999999,13.9999999 0,7.7 6.3,14 13.9999999,14 7.7,0 14,-6.3 14,-14 0,-7.6999996 -6.3,-13.9999999 -14,-13.9999999 z m 6,16.1999999 c -0.2,2.3 -2,3 -4.6,3.2 v 2.4 h -1.5 v -2.4 c -0.4,0 -0.8,0 -1.2,0 v 2.4 h -1.5 v -2.4 c -0.4,0 -0.7,0 -1.1,0 l -2,0.1 0.3,-1.8 c 0,0 1.1,0 1.1,0 0.4,0 0.5,-0.3 0.6,-0.5 v -6.6 c -0.1,-0.3 -0.3,-0.6 -0.9,-0.6 0,0 -1.1,0 -1.1,0 v -1.6 l 2.1,-0.1 v 0 c 0.3,0 0.6,0 1,0 V 8.5186444 h 1.5 v 2.3999996 c 0.4,0 0.8,0 1.2,-0.1 V 8.5186444 h 1.5 v 2.3999996 c 2,0.1 3.5,0.6 3.7,2.4 0.1,1.3 -0.4,2 -1.3,2.5 1.4,0.4 2.4,1.2 2.2,3 z m -3.8,-4.7 c 0,-1.7 -2.7,-1.4 -3.6,-1.3 v 2.9 c 0.9,0 3.6,0.1 3.6,-1.6 z m -3.5,3.1 v 3.2 c 1,0 4.3,0.1 4.3,-1.7 0,-2 -3.3,-1.6 -4.3,-1.5 z"
     id="path29"
     inkscape:connector-curvature="0"
     style="clip-rule:evenodd;fill-rule:evenodd" /></svg>