<?xml version="1.0" encoding="UTF-8" standalone="no"?>
<svg
   xmlns:dc="http://purl.org/dc/elements/1.1/"
   xmlns:cc="http://creativecommons.org/ns#"
   xmlns:rdf="http://www.w3.org/1999/02/22-rdf-syntax-ns#"
   xmlns:svg="http://www.w3.org/2000/svg"
   xmlns="http://www.w3.org/2000/svg"
   xmlns:sodipodi="http://sodipodi.sourceforge.net/DTD/sodipodi-0.dtd"
   xmlns:inkscape="http://www.inkscape.org/namespaces/inkscape"
   data-name="Layer 1"
   viewBox="0 0 100 100"
   x="0px"
   y="0px"
   version="1.1"
   id="svg12"
   sodipodi:docname="event.svg"
   width="100"
   height="100"
   inkscape:version="0.92.4 5da689c313, 2019-01-14">
  <metadata
     id="metadata18">
    <rdf:RDF>
      <cc:Work
         rdf:about="">
        <dc:format>image/svg+xml</dc:format>
        <dc:type
           rdf:resource="http://purl.org/dc/dcmitype/StillImage" />
        <dc:title>02</dc:title>
      </cc:Work>
    </rdf:RDF>
  </metadata>
  <defs
     id="defs16" />
  <sodipodi:namedview
     pagecolor="#ffffff"
     bordercolor="#666666"
     borderopacity="1"
     objecttolerance="10"
     gridtolerance="10"
     guidetolerance="10"
     inkscape:pageopacity="0"
     inkscape:pageshadow="2"
     inkscape:window-width="640"
     inkscape:window-height="480"
     id="namedview14"
     showgrid="false"
     inkscape:zoom="1.888"
     inkscape:cx="50"
     inkscape:cy="62.5"
     inkscape:window-x="0"
     inkscape:window-y="0"
     inkscape:window-maximized="0"
     inkscape:current-layer="svg12" />
  <title
     id="title2">02</title>
  <path
     d="m 31.33,8.8750847 h -2.66 a 7,7 0 0 0 -7,7.0000003 v 1 h -1.34 a 11,11 0 0 0 -11,11 v 48.86 a 11,11 0 0 0 11,11 h 59.34 a 11,11 0 0 0 11,-11 v -48.85 a 11,11 0 0 0 -11,-11 h -1.34 v -1 a 7,7 0 0 0 -7,-7.0000003 h -2.66 a 7,7 0 0 0 -7,7.0000003 v 1 H 38.33 v -1 a 7,7 0 0 0 -7,-7.0100003 z m -3.67,7.0000003 a 1,1 0 0 1 1,-1 h 2.67 a 1,1 0 0 1 1,1 v 8 a 1,1 0 0 1 -1,1 h -2.66 a 1,1 0 0 1 -1,-1 z m 57,60.86 a 5,5 0 0 1 -5,5 H 20.33 a 5,5 0 0 1 -5,-5 v -33.74 h 69.34 z m -17,-60.86 a 1,1 0 0 1 1,-1 h 2.67 a 1,1 0 0 1 1,1 v 8 a 1,1 0 0 1 -1,1 h -2.66 a 1,1 0 0 1 -1,-1 z m -6,7 v 1 a 7,7 0 0 0 7,7 h 2.67 a 7,7 0 0 0 7,-7 v -1 h 1.33 a 5,5 0 0 1 5,5 v 9.1 H 15.33 v -9.1 a 5,5 0 0 1 5,-5 h 1.33 v 1 a 7,7 0 0 0 7,7 h 2.67 a 7,7 0 0 0 7,-7 v -1 z"
     id="path6"
     inkscape:connector-curvature="0" />
</svg>
