<?xml version="1.0" encoding="UTF-8" standalone="no"?>
<svg
   xmlns:dc="http://purl.org/dc/elements/1.1/"
   xmlns:cc="http://creativecommons.org/ns#"
   xmlns:rdf="http://www.w3.org/1999/02/22-rdf-syntax-ns#"
   xmlns:svg="http://www.w3.org/2000/svg"
   xmlns="http://www.w3.org/2000/svg"
   xmlns:sodipodi="http://sodipodi.sourceforge.net/DTD/sodipodi-0.dtd"
   xmlns:inkscape="http://www.inkscape.org/namespaces/inkscape"
   version="1.1"
   x="0px"
   y="0px"
   viewBox="0 0 95 95"
   id="svg10"
   sodipodi:docname="Globe.svg"
   width="95"
   height="95"
   inkscape:version="0.92.4 5da689c313, 2019-01-14">
  <metadata
     id="metadata16">
    <rdf:RDF>
      <cc:Work
         rdf:about="">
        <dc:format>image/svg+xml</dc:format>
        <dc:type
           rdf:resource="http://purl.org/dc/dcmitype/StillImage" />
        <dc:title></dc:title>
      </cc:Work>
    </rdf:RDF>
  </metadata>
  <defs
     id="defs14" />
  <sodipodi:namedview
     pagecolor="#ffffff"
     bordercolor="#666666"
     borderopacity="1"
     objecttolerance="10"
     gridtolerance="10"
     guidetolerance="10"
     inkscape:pageopacity="0"
     inkscape:pageshadow="2"
     inkscape:window-width="640"
     inkscape:window-height="480"
     id="namedview12"
     showgrid="false"
     inkscape:zoom="1.888"
     inkscape:cx="50"
     inkscape:cy="62.5"
     inkscape:window-x="0"
     inkscape:window-y="0"
     inkscape:window-maximized="0"
     inkscape:current-layer="svg10" />
  <g
     transform="translate(-1.5889831,-954.81981)"
     id="g4">
    <path
       d="m 64,959.61196 c 13.309799,7.76489 22,22.10619 22,36.75 0,6.95774 -1.878201,13.76264 -5.5312,20.15614 -7.5689,13.2467 -21.4139,20.2082 -35.4688,20.8125 v 4.0315 h 10 c 1.1046,0 2,0.8954 2,2 0,1.1046 -0.8954,2 -2,2 H 31 c -1.1046,0 -2,-0.8954 -2,-2 0,-1.1046 0.8954,-2 2,-2 h 10 v -4.0627 c -5.9989,-0.3164 -12.534901,-2.0305 -18,-5.2188 -0.903,-0.5262 -1.2484,-1.8243 -0.726301,-2.7297 0.522,-0.9054 1.8184,-1.2569 2.726301,-0.739 5.330199,3.1097 12.204799,4.75 18,4.75 13.4771,0 26.848799,-6.3279 34,-18.8438 3.3418,-5.8488 5,-11.9151 5,-18.15614 0,-13.04669 -7.8942,-26.21878 -20,-33.28125 -0.7988,-0.43464 -1.2212,-1.46068 -0.959901,-2.33171 0.6795,-1.35508 1.7367,-1.67924 2.959901,-1.13704 z m -19.3437,6.90625 c 2.6314,0.059 5.2361,0.48629 7.75,1.21875 -1.779601,0.28664 -3.6261,0.86213 -5.5,1.75 -2.6218,1.24217 -5.2979,3.07489 -7.875,5.40625 l -8.5,-5.1875 c 4.5127,-2.27036 9.3598,-3.29427 14.125,-3.1875 z m 10.5312,5.03125 -5.3437,9.90625 -7.2188,-4.375 c 2.024299,-1.70435 4.067199,-3.05302 6,-3.96875 2.153899,-0.90323 4.4346,-1.60122 6.5625,-1.5625 z m -28.5,0.46875 c 3.1405,1.95133 6.310299,3.85827 9.4688,5.78125 -2.3472,2.76859 -4.243001,5.15403 -5.7813,7.96875 l -10.8125,-6.65625 c 1.909999,-2.69318 4.305799,-5.09996 7.125,-7.09375 z m 32.1563,1.1875 c 1.568399,2.0326 2.502399,6.60616 1.7812,12.3125 -0.093,0.73664 -0.2324,1.51286 -0.375,2.28125 l -6.9687,-4.25 z m 4.9062,0.71875 c 2.424999,2.11705 4.5511,4.65112 6.25,7.59375 2.670599,4.62567 3.979699,9.67083 4.0313,14.65625 l -10.1563,-6.1875 c 0.293199,-1.34823 0.556299,-2.68338 0.7188,-3.96875 0.5853,-4.63178 0.400499,-8.81187 -0.8438,-12.09375 z m -24.125,5.96875 8.3125,5.0625 -4.6875,8.71875 -9.4687,-5.8125 c 1.604999,-2.87711 3.8065,-5.79725 5.8437,-7.96875 z m -22.1562,2.625 11,6.78125 c -1.5413,3.14868 -2.7495,6.34377 -3.625,9.4687 -3.4799,-2.19336 -7.0855,-4.19022 -10.5313,-6.43745 0.4836,-3.42129 1.5463,-6.74229 3.1563,-9.8125 z m 33.9062,4.53125 7.9375,4.84375 c -0.8647,3.0579 -2.097701,6.24105 -3.6875,9.40629 l -8.9687,-5.50004 z m -19.4687,4.34375 9.4375,5.81245 -4.7188,8.71884 -8.2187,-5 c 0.801099,-3.11504 1.9729,-6.34803 3.5,-9.53129 z m 30.9375,2.65625 c 3.6423,2.16843 7.2133,4.4578 10.875,6.59374 -0.4802,3.4325 -1.5381,6.7661 -3.1563,9.8437 l -11.5312,-7.0937 c 1.5939,-3.1214 2.8763,-6.27514 3.8125,-9.34374 z M 14,996.83071 l 9.875,5.99999 c -0.249401,1.2781 -0.456001,2.5268 -0.5937,3.75 -0.539,4.7865 -0.3369,9.1194 0.9375,12.4687 -2.395401,-2.1038 -4.5046,-4.6164 -6.1875,-7.5313 C 15.358,1006.888 14.0507,1001.8213 14,996.83071 Z m 30.75,2.46875 8.9375,5.50004 c -1.7212,2.8366 -3.885401,5.7643 -5.9062,7.9374 l -7.7188,-4.7188 z m -17.2187,5.75004 7.1875,4.3749 -5.5625,10.3437 c -1.5564,-2.0355 -2.572001,-6.8372 -1.9063,-12.75 0.073,-0.6493 0.1721,-1.2963 0.2813,-1.9686 z m 29.5625,1.8437 11.375,6.9999 c -1.913,2.6897 -4.308301,5.1037 -7.125,7.0938 -3.356801,-2.0374 -6.7088,-4.0827 -10.0625,-6.125 2.296099,-2.7456 4.254099,-5.2826 5.8125,-7.9687 z m -18.9375,4.6249 6.6562,4.0625 c -1.905401,1.6495 -3.812101,2.9596 -5.625,3.9063 -2.3139,1.2082 -4.4552,1.831 -6.125,1.875 -0.079,0 -0.1423,10e-5 -0.2187,0 z m 10.2187,6.25 9.125,5.5313 c -7.1655,3.6162 -15.180701,4.0988 -22.375,1.875 1.911499,-0.3325 3.8917,-1.0731 5.9063,-2.125 2.438299,-1.2733 4.9305,-3.0596 7.3437,-5.2813 z"
       style="color:#000000;text-indent:0;text-transform:none;direction:ltr;baseline-shift:baseline;display:inline;overflow:visible;visibility:visible;fill:#000000;fill-opacity:1;stroke:none;enable-background:accumulate"
       marker="none"
       visibility="visible"
       display="inline"
       overflow="visible"
       id="path2"
       inkscape:connector-curvature="0" />
  </g>
</svg>
