<?xml version="1.0" encoding="UTF-8" standalone="no"?>
<svg
   xmlns:dc="http://purl.org/dc/elements/1.1/"
   xmlns:cc="http://creativecommons.org/ns#"
   xmlns:rdf="http://www.w3.org/1999/02/22-rdf-syntax-ns#"
   xmlns:svg="http://www.w3.org/2000/svg"
   xmlns="http://www.w3.org/2000/svg"
   xmlns:sodipodi="http://sodipodi.sourceforge.net/DTD/sodipodi-0.dtd"
   xmlns:inkscape="http://www.inkscape.org/namespaces/inkscape"
   viewBox="0 0 100 100"
   x="0px"
   y="0px"
   version="1.1"
   id="svg16"
   sodipodi:docname="Lips.svg"
   width="100"
   height="100"
   inkscape:version="0.92.4 5da689c313, 2019-01-14">
  <metadata
     id="metadata22">
    <rdf:RDF>
      <cc:Work
         rdf:about="">
        <dc:format>image/svg+xml</dc:format>
        <dc:type
           rdf:resource="http://purl.org/dc/dcmitype/StillImage" />
        <dc:title>Labios</dc:title>
      </cc:Work>
    </rdf:RDF>
  </metadata>
  <defs
     id="defs20" />
  <sodipodi:namedview
     pagecolor="#ffffff"
     bordercolor="#666666"
     borderopacity="1"
     objecttolerance="10"
     gridtolerance="10"
     guidetolerance="10"
     inkscape:pageopacity="0"
     inkscape:pageshadow="2"
     inkscape:window-width="640"
     inkscape:window-height="480"
     id="namedview18"
     showgrid="false"
     inkscape:zoom="1.9339575"
     inkscape:cx="12.083202"
     inkscape:cy="38.539444"
     inkscape:window-x="0"
     inkscape:window-y="0"
     inkscape:window-maximized="0"
     inkscape:current-layer="svg16" />
  <title
     id="title2">Labios</title>
  <g
     data-name="Capa 2"
     id="g10"
     transform="matrix(0.05772423,0,0,0.05772423,-7.5353413,24.184894)">
    <path
       d="m 1769.52,672.56 a 44.8,44.8 0 0 0 -20.82,-0.08 c -0.36,0.08 -37.63,8.24 -99.23,2.6 -59.74,-5.47 -153.36,-25.41 -260.1,-89.31 -58,-34.73 -117,-51.09 -175.45,-48.63 -47.1,2 -93.14,16.14 -136.85,42.08 -32.38,19.22 -58.55,42.11 -77.71,61.72 -19.16,-19.62 -45.33,-42.51 -77.71,-61.72 -43.71,-25.94 -89.75,-40.1 -136.85,-42.08 -58.41,-2.47 -117.44,13.9 -175.45,48.63 -104.85,62.77 -197,83 -255.75,88.89 -45,4.51 -77.92,1.6 -93.6,-0.55 a 45.43,45.43 0 0 0 -65.23,40.89 45.91,45.91 0 0 0 0.26,4.85 44.8,44.8 0 0 0 6,27.62 c 1.58,2.68 159.56,270.42 290.2,459.76 56.52,81.91 139.65,149.11 240.42,194.34 92.45,41.49 196.41,63.32 301.27,63.32 3.14,0 6.29,0 9.43,-0.06 101.86,-1.27 200.92,-23.52 286.49,-64.35 a 571.65,571.65 0 0 0 124.35,-80.17 531.58,531.58 0 0 0 100.58,-114 c 121.58,-186 156.37,-282.16 179.39,-345.8 14.73,-40.73 23,-63.51 46.46,-90.46 q 0.81,-0.86 1.56,-1.76 c 5.11,-5.74 10.92,-11.69 17.65,-18.06 a 45,45 0 0 0 -29.28,-77.64 z M 655.59,663 c 75.38,-45.13 148.64,-47.75 217.74,-7.77 44.15,25.54 74.1,61.24 84.59,74.89 a 45.43,45.43 0 0 0 84.69,-2.31 c 11.85,-15 40.94,-48.37 82.79,-72.58 69.1,-40 142.36,-37.36 217.74,7.77 98.84,59.18 188.89,86 260.51,97.09 -147.17,68.26 -400.12,170.13 -598.91,170.13 -121.68,0 -282.1,-39.47 -463.91,-114.14 -49.23,-20.22 -94,-40.54 -131.28,-58.41 69.12,-12.4 153.75,-39.43 246.04,-94.67 z m 822.82,494 c -88.94,136 -248.3,215.43 -437.21,217.79 -2.88,0 -5.72,0.05 -8.59,0.05 -195.4,0 -373.9,-83.37 -467.33,-218.77 C 494.14,1053 414.57,926 357.33,832.46 c 40.73,19.76 91.34,43 148.2,66.4 85.06,35 166.41,62.9 241.78,83 95.64,25.47 182.26,38.38 257.43,38.38 75.17,0 162.32,-12.9 259.18,-38.34 76.32,-20 159,-47.93 245.79,-82.88 50.59,-20.37 96.42,-40.65 135,-58.6 -21.8,59.74 -57.05,149.51 -166.3,316.58 z"
       transform="translate(-5,-499.62)"
       id="path4"
       inkscape:connector-curvature="0" />
  </g>
</svg>
