<?xml version="1.0" encoding="UTF-8" standalone="no"?>
<svg
   xmlns:dc="http://purl.org/dc/elements/1.1/"
   xmlns:cc="http://creativecommons.org/ns#"
   xmlns:rdf="http://www.w3.org/1999/02/22-rdf-syntax-ns#"
   xmlns:svg="http://www.w3.org/2000/svg"
   xmlns="http://www.w3.org/2000/svg"
   xmlns:sodipodi="http://sodipodi.sourceforge.net/DTD/sodipodi-0.dtd"
   xmlns:inkscape="http://www.inkscape.org/namespaces/inkscape"
   version="1.1"
   x="0px"
   y="0px"
   viewBox="0 0 100 100"
   enable-background="new 0 0 100 100"
   xml:space="preserve"
   id="svg10"
   sodipodi:docname="nature.svg"
   width="100"
   height="100"
   inkscape:version="0.92.4 5da689c313, 2019-01-14"><metadata
     id="metadata16"><rdf:RDF><cc:Work
         rdf:about=""><dc:format>image/svg+xml</dc:format><dc:type
           rdf:resource="http://purl.org/dc/dcmitype/StillImage" /><dc:title></dc:title></cc:Work></rdf:RDF></metadata><defs
     id="defs14" /><sodipodi:namedview
     pagecolor="#ffffff"
     bordercolor="#666666"
     borderopacity="1"
     objecttolerance="10"
     gridtolerance="10"
     guidetolerance="10"
     inkscape:pageopacity="0"
     inkscape:pageshadow="2"
     inkscape:window-width="640"
     inkscape:window-height="480"
     id="namedview12"
     showgrid="false"
     inkscape:zoom="1.888"
     inkscape:cx="50"
     inkscape:cy="62.5"
     inkscape:window-x="0"
     inkscape:window-y="0"
     inkscape:window-maximized="0"
     inkscape:current-layer="svg10" /><g
     id="g4"
     transform="translate(1.059322,1.4830508)"><path
       d="M 62.546585,89.008011 67.39859,63.313057 H 32.598389 L 37.45039,89.008011 Z M 71.466011,63.313057 66.19075,91.237862 c -0.113556,1.001373 -0.960075,1.775627 -1.992416,1.775627 H 35.798645 v -0.01032 c -0.93943,0 -1.78595,-0.660698 -1.961445,-1.620773 L 28.53097,63.313057 c -1.104605,0 -2.973141,0.01032 -2.973141,-2.002743 v -7.422527 c 0,-1.104603 0.887812,-2.002739 1.992416,-2.002739 H 48.7029 C 48.899044,46.919491 47.29892,42.015873 45.306499,38.60915 38.833725,45.092247 25.671387,46.909164 20.003838,34.583023 19.952221,34.459141 19.910927,34.324936 19.869633,34.190731 16.504204,19.727642 9.1023216,18.99468 9.0816755,18.99468 v 0 C 7.3576669,18.777889 6.676322,16.527388 8.1112756,15.422783 8.1628923,15.381489 26.001737,1.4655399 39.329251,9.4661789 50.91211,16.424152 48.486112,30.680775 47.557004,34.613991 c 1.228485,1.744655 2.291797,3.685455 3.138313,5.832725 0.93943,-2.704734 2.312443,-5.440437 4.304863,-7.752876 0.588432,-3.427372 3.437691,-15.433491 14.896671,-16.961355 13.141694,-1.744656 22.494698,15.206375 22.515343,15.247669 0.825874,1.476248 -0.464554,3.375753 -2.322761,2.880228 -0.02065,-0.01032 -5.76046,-1.847889 -12.966202,8.010963 -0.08258,0.113556 -0.175491,0.21679 -0.278732,0.3097 h 0.01033 c -7.763207,6.978623 -16.672302,3.169285 -20.657135,-3.933216 -2.684086,4.583592 -3.45834,10.085968 -3.45834,13.637219 h 19.707379 c 1.104606,0 1.992416,0.898136 1.992416,2.002739 v 7.422527 c -10e-7,2.013066 -1.868539,2.002743 -2.973138,2.002743 z M 30.182714,59.307575 H 70.443991 V 55.880203 H 29.552986 v 3.427372 z M 70.413017,19.686348 c -5.698516,0.763933 -8.640686,5.120409 -10.127258,8.836836 4.026131,-2.044035 9.435593,-2.818291 16.713593,-1.259457 2.570526,0.54714 1.744659,4.449389 -0.825875,3.902247 -8.403251,-1.785948 -13.812713,0.185821 -17.281376,3.602867 0.722638,2.673763 4.490681,6.514069 8.093548,7.071533 2.09565,0.330349 4.51133,-0.26841 7.071533,-2.518909 C 78.991768,32.662869 83.771507,30.54657 87.033699,29.96846 84.05024,25.777157 77.835548,18.695301 70.413017,19.686348 Z m -45.13392,5.027498 c -2.601498,-0.392288 -2.013064,-4.346153 0.588434,-3.953863 0.06194,0 9.146538,0.743284 18.355011,9.900145 0.619407,-4.913941 0.433586,-13.337839 -6.937325,-17.766579 -8.052257,-4.8313532 -18.664716,0.474876 -23.764477,3.664808 3.282842,1.961447 7.79417,6.431481 10.189201,16.4968 1.837564,3.840305 4.315182,5.708843 6.896034,6.348896 4.294535,1.073631 10.251139,-1.321396 12.408732,-4.067425 C 34.900509,25.529396 25.341038,24.713846 25.279097,24.713846 Z"
       id="path2"
       inkscape:connector-curvature="0" /></g></svg>