<?xml version="1.0" encoding="UTF-8" standalone="no"?>
<svg
   xmlns:dc="http://purl.org/dc/elements/1.1/"
   xmlns:cc="http://creativecommons.org/ns#"
   xmlns:rdf="http://www.w3.org/1999/02/22-rdf-syntax-ns#"
   xmlns:svg="http://www.w3.org/2000/svg"
   xmlns="http://www.w3.org/2000/svg"
   xmlns:sodipodi="http://sodipodi.sourceforge.net/DTD/sodipodi-0.dtd"
   xmlns:inkscape="http://www.inkscape.org/namespaces/inkscape"
   version="1.1"
   x="0px"
   y="0px"
   viewBox="0 0 100 100"
   xml:space="preserve"
   id="svg8"
   sodipodi:docname="politics.svg"
   width="100"
   height="100"
   inkscape:version="0.92.4 5da689c313, 2019-01-14"><metadata
     id="metadata14"><rdf:RDF><cc:Work
         rdf:about=""><dc:format>image/svg+xml</dc:format><dc:type
           rdf:resource="http://purl.org/dc/dcmitype/StillImage" /><dc:title></dc:title></cc:Work></rdf:RDF></metadata><defs
     id="defs12" /><sodipodi:namedview
     pagecolor="#ffffff"
     bordercolor="#666666"
     borderopacity="1"
     objecttolerance="10"
     gridtolerance="10"
     guidetolerance="10"
     inkscape:pageopacity="0"
     inkscape:pageshadow="2"
     inkscape:window-width="640"
     inkscape:window-height="480"
     id="namedview10"
     showgrid="false"
     inkscape:zoom="1.888"
     inkscape:cx="50"
     inkscape:cy="62.5"
     inkscape:window-x="0"
     inkscape:window-y="0"
     inkscape:window-maximized="0"
     inkscape:current-layer="svg8" /><path
     d="m 84.7,80.05339 h -1.4 v -20.5 c 0,-2.9 -2.2,-5.2 -5.1,-5.2 -2.9,0 -5.1,2.3 -5.1,5.2 v 20.5 h -8.4 v -20.5 c 0,-2.9 -2.2,-5.2 -5.1,-5.2 -2.9,0 -5.1,2.3 -5.1,5.2 v 20.5 h -8.4 v -20.5 c 0,-2.9 -2.2,-5.2 -5.1,-5.2 -2.9,0 -5.1,2.3 -5.1,5.2 v 20.5 h -8.4 v -20.5 c 0,-2.9 -2.4,-5.2 -5.2,-5.2 -2.8,0 -5.2,2.3 -5.2,5.2 v 20.5 h -1.5 c -2.9,0 -5.2,2.4 -5.2,5.2 0,2.9 2.3,5.2 5.2,5.2 h 69 c 2.9,0 5.2,-2.4 5.2,-5.2 0.1,-2.8 -2.2,-5.2 -5.1,-5.2 z m -8.2,-20.5 c 0,-1 0.7,-1.8 1.7,-1.8 1,0 1.7,0.8 1.7,1.8 v 20.3 h -3.4 z m -18.5,0 c 0,-1 0.7,-1.8 1.7,-1.8 1,0 1.7,0.8 1.7,1.8 v 20.3 H 58 Z m -18.6,0 c 0,-1 0.7,-1.8 1.7,-1.8 1,0 1.7,0.8 1.7,1.8 v 20.3 h -3.4 z m -18.8,0 c 0,-1 0.8,-1.8 1.8,-1.8 1,0 1.8,0.8 1.8,1.8 v 20.3 h -3.6 z m 64.1,27.5 h -69 c -1,0 -1.8,-0.8 -1.8,-1.8 0,-1 0.8,-1.8 1.8,-1.8 h 69 c 1,0 1.8,0.8 1.8,1.8 0,1 -0.8,1.8 -1.8,1.8 z m -68.3,-35.1 h 67.7 c 3.2,0 5.6,-2.5 5.6,-5.7 v 0 c 0,-2.4 -1.4,-4.5 -3.7,-5.4 l -33.5,-12 c -0.1,-0.1 -0.2,-0.1 -0.4,-0.1 v -4.6 h 3.6 c 0.3,0 0.6,0 0.9,-0.1 0.2,2.1 2,3.7 4.1,3.7 h 7 v -13.2 h -7.3 c -0.2,0 -0.3,0 -0.5,0 -0.2,-2.1 -2,-3.7 -4.1,-3.7 h -7.2 v 1.7 11.4 4.7 c 0,0 -0.1,0 -0.1,0 l -34.2,12 c -2.3,0.8 -3.8,3 -3.8,5.4 0.1,3.4 2.7,5.9 5.9,5.9 z m 44,-34 h 3.9 v 6.3 h -3.6 c -0.4,0 -0.7,-0.4 -0.7,-0.8 v -3.8 -1.4 c 0,-0.1 0.2,-0.3 0.4,-0.3 z m -3.8,-2.9 v 3.3 1.4 c 0,0.5 -0.4,1 -1,1 H 52 v -6.3 h 3.8 c 0.4,-0.1 0.8,0.2 0.8,0.6 z m -41.1,29 34.2,-12 c 0.3,-0.1 0.5,-0.1 0.8,-0.1 0.3,0 0.6,0.1 0.8,0.2 l 33.5,12 c 0.9,0.3 1.5,1.2 1.5,2.2 v 0 c 0,1.3 -0.9,2.3 -2.2,2.3 H 16.4 c -1.3,0 -2.3,-1 -2.3,-2.3 -0.1,-1.1 0.5,-2 1.4,-2.3 z"
     id="path2"
     inkscape:connector-curvature="0" /></svg>