<?xml version="1.0" encoding="UTF-8" standalone="no"?>
<svg
   xmlns:dc="http://purl.org/dc/elements/1.1/"
   xmlns:cc="http://creativecommons.org/ns#"
   xmlns:rdf="http://www.w3.org/1999/02/22-rdf-syntax-ns#"
   xmlns:svg="http://www.w3.org/2000/svg"
   xmlns="http://www.w3.org/2000/svg"
   xmlns:sodipodi="http://sodipodi.sourceforge.net/DTD/sodipodi-0.dtd"
   xmlns:inkscape="http://www.inkscape.org/namespaces/inkscape"
   version="1.1"
   x="0px"
   y="0px"
   viewBox="0 0 100 100"
   xml:space="preserve"
   id="svg512"
   sodipodi:docname="Technology.svg"
   width="100"
   height="100"
   inkscape:version="0.92.4 5da689c313, 2019-01-14"><metadata
     id="metadata518"><rdf:RDF><cc:Work
         rdf:about=""><dc:format>image/svg+xml</dc:format><dc:type
           rdf:resource="http://purl.org/dc/dcmitype/StillImage" /><dc:title></dc:title></cc:Work></rdf:RDF></metadata><defs
     id="defs516" /><sodipodi:namedview
     pagecolor="#ffffff"
     bordercolor="#666666"
     borderopacity="1"
     objecttolerance="10"
     gridtolerance="10"
     guidetolerance="10"
     inkscape:pageopacity="0"
     inkscape:pageshadow="2"
     inkscape:window-width="640"
     inkscape:window-height="480"
     id="namedview514"
     showgrid="false"
     inkscape:zoom="1.888"
     inkscape:cx="50"
     inkscape:cy="62.5"
     inkscape:window-x="0"
     inkscape:window-y="0"
     inkscape:window-maximized="0"
     inkscape:current-layer="svg512" /><g
     id="g506"
     transform="translate(0,-1.1652542)"><path
       d="M 88.9,22.4 C 88.9,16.7 84.2,12 78.5,12 c -5.7,0 -10.4,4.7 -10.4,10.4 0,5.7 4.7,10.4 10.4,10.4 5.8,-0.1 10.4,-4.7 10.4,-10.4 z m -14.7,0 c 0,-2.4 2,-4.4 4.4,-4.4 2.4,0 4.4,2 4.4,4.4 0,2.4 -2,4.4 -4.4,4.4 -2.4,0 -4.4,-2 -4.4,-4.4 z"
       id="path498"
       inkscape:connector-curvature="0" /><path
       d="m 50,12 c -5.7,0 -10.4,4.7 -10.4,10.4 0,5.7 4.7,10.4 10.4,10.4 1.9,0 3.7,-0.5 5.3,-1.5 l 14,14 c -0.7,1.4 -1.1,3 -1.1,4.7 0,4.7 3.1,8.6 7.4,9.9 v 7.8 C 71.3,69 68.2,72.9 68.2,77.6 68.2,83.3 72.9,88 78.6,88 84.3,88 89,83.3 89,77.6 89,72.9 85.9,69 81.6,67.7 V 59.9 C 85.9,58.6 89,54.7 89,50 89,44.3 84.3,39.6 78.6,39.6 76.7,39.6 75,40.1 73.5,41 L 59.3,26.9 c 0.7,-1.4 1,-2.9 1,-4.5 C 60.4,16.7 55.7,12 50,12 Z m -4.4,10.4 c 0,-2.4 2,-4.4 4.4,-4.4 2.4,0 4.4,2 4.4,4.4 0,2.4 -2,4.4 -4.4,4.4 -2.4,0 -4.4,-2 -4.4,-4.4 z m 37.3,55.2 c 0,2.4 -2,4.4 -4.4,4.4 -2.4,0 -4.4,-2 -4.4,-4.4 0,-2.4 2,-4.4 4.4,-4.4 2.4,0 4.4,2 4.4,4.4 z m -4.3,-32 c 2.4,0 4.4,2 4.4,4.4 0,2.4 -2,4.4 -4.4,4.4 -2.4,0 -4.4,-2 -4.4,-4.4 0,-2.4 1.9,-4.4 4.4,-4.4 z"
       id="path500"
       inkscape:connector-curvature="0" /><path
       d="m 11.1,50 c 0,5.7 4.7,10.4 10.4,10.4 1,0 1.9,-0.1 2.7,-0.4 l 15.6,15.6 c -0.1,0.7 -0.2,1.3 -0.2,2 0,5.7 4.7,10.4 10.4,10.4 5.7,0 10.4,-4.7 10.4,-10.4 0,-4.7 -3.1,-8.6 -7.4,-9.9 v -7.8 c 4.3,-1.3 7.4,-5.2 7.4,-9.9 0,-5.7 -4.7,-10.4 -10.4,-10.4 -5.7,0 -10.4,4.7 -10.4,10.4 0,4.7 3.1,8.6 7.4,9.9 v 7.8 c -1.6,0.5 -3,1.3 -4.2,2.4 L 29.4,56.7 c 1.5,-1.8 2.4,-4.1 2.4,-6.7 0,-4.7 -3.1,-8.6 -7.4,-9.9 V 32.3 C 28.7,31 31.8,27.1 31.8,22.4 31.8,16.7 27.1,12 21.4,12 15.7,12 11,16.7 11,22.4 c 0,4.7 3.1,8.6 7.4,9.9 v 7.8 c -4.2,1.3 -7.3,5.2 -7.3,9.9 z m 34.5,0 c 0,-2.4 2,-4.4 4.4,-4.4 2.4,0 4.4,2 4.4,4.4 0,2.4 -2,4.4 -4.4,4.4 -2.4,0 -4.4,-2 -4.4,-4.4 z M 50,73.3 c 2.4,0 4.4,2 4.4,4.4 0,2.4 -2,4.3 -4.4,4.3 -2.4,0 -4.4,-2 -4.4,-4.4 0,-2.4 2,-4.3 4.4,-4.3 z M 25.8,50 c 0,2.4 -2,4.4 -4.4,4.4 -2.4,0 -4.4,-2 -4.4,-4.4 0,-2.4 2,-4.4 4.4,-4.4 2.4,0 4.4,2 4.4,4.4 z M 17.1,22.4 c 0,-2.4 2,-4.4 4.4,-4.4 2.4,0 4.4,2 4.4,4.4 0,2.4 -2,4.4 -4.4,4.4 -2.4,0 -4.4,-2 -4.4,-4.4 z"
       id="path502"
       inkscape:connector-curvature="0" /><path
       d="M 21.4,88 C 27.1,88 31.8,83.3 31.8,77.6 31.8,71.9 27.1,67.2 21.4,67.2 15.7,67.2 11,71.9 11,77.6 11.1,83.3 15.7,88 21.4,88 Z m 0,-14.7 c 2.4,0 4.4,2 4.4,4.4 0,2.4 -2,4.4 -4.4,4.4 -2.4,0 -4.4,-2 -4.4,-4.4 0,-2.4 2,-4.4 4.4,-4.4 z"
       id="path504"
       inkscape:connector-curvature="0" /></g></svg>