<?xml version="1.0" encoding="UTF-8" standalone="no"?>
<svg
   xmlns:dc="http://purl.org/dc/elements/1.1/"
   xmlns:cc="http://creativecommons.org/ns#"
   xmlns:rdf="http://www.w3.org/1999/02/22-rdf-syntax-ns#"
   xmlns:svg="http://www.w3.org/2000/svg"
   xmlns="http://www.w3.org/2000/svg"
   xmlns:sodipodi="http://sodipodi.sourceforge.net/DTD/sodipodi-0.dtd"
   xmlns:inkscape="http://www.inkscape.org/namespaces/inkscape"
   data-name="Layer 1"
   viewBox="0 0 100 100"
   x="0px"
   y="0px"
   version="1.1"
   id="svg536"
   sodipodi:docname="theatre.svg"
   width="100"
   height="100"
   inkscape:version="0.92.4 5da689c313, 2019-01-14">
  <metadata
     id="metadata542">
    <rdf:RDF>
      <cc:Work
         rdf:about="">
        <dc:format>image/svg+xml</dc:format>
        <dc:type
           rdf:resource="http://purl.org/dc/dcmitype/StillImage" />
        <dc:title>Artboard 22</dc:title>
      </cc:Work>
    </rdf:RDF>
  </metadata>
  <defs
     id="defs540" />
  <sodipodi:namedview
     pagecolor="#ffffff"
     bordercolor="#666666"
     borderopacity="1"
     objecttolerance="10"
     gridtolerance="10"
     guidetolerance="10"
     inkscape:pageopacity="0"
     inkscape:pageshadow="2"
     inkscape:window-width="640"
     inkscape:window-height="480"
     id="namedview538"
     showgrid="false"
     inkscape:zoom="1.888"
     inkscape:cx="50"
     inkscape:cy="67.670628"
     inkscape:window-x="0"
     inkscape:window-y="0"
     inkscape:window-maximized="0"
     inkscape:current-layer="svg536" />
  <title
     id="title520">Artboard 22</title>
  <path
     d="m 22.18,68.334068 a 11,11 0 0 0 -4.64,5.34 c 0,0.11 0.45,0.56 1.09,1 a 3.13,3.13 0 0 0 1.14,0.61 21.18,21.18 0 0 1 4.62,-2.67 12.32,12.32 0 0 1 12.61,2.1 21.27,21.27 0 0 1 3.52,4 3.65,3.65 0 0 0 1.43,-0.25 c 0.65,-0.19 1.13,-0.41 1.13,-0.52 a 11,11 0 0 0 -2.61,-6.57 14.18,14.18 0 0 0 -18.24,-3.08 z"
     id="path522"
     inkscape:connector-curvature="0" />
  <path
     d="m 74.06,20.144068 a 6.88,6.88 0 0 0 -5,4.3 5,5 0 0 0 0.4,4.56 4.46,4.46 0 0 0 1.54,-0.21 7.33,7.33 0 0 0 1.23,-0.35 7.35,7.35 0 0 1 1.23,-1.87 3.6,3.6 0 0 1 4,-0.9 7.33,7.33 0 0 1 1.86,1.22 8.44,8.44 0 0 0 1.42,-0.25 3.59,3.59 0 0 0 1.18,-0.38 4.94,4.94 0 0 0 -1.55,-4.37 6.87,6.87 0 0 0 -6.31,-1.75 z"
     id="path524"
     inkscape:connector-curvature="0" />
  <path
     d="m 94.17,5.1440678 v 0 a 2.74,2.74 0 0 0 -2.13,-2 76.77,76.77 0 0 0 -35.47,1.5 74,74 0 0 0 -25.4,13.0000002 l -0.09,0.07 a 1.71,1.71 0 0 0 -0.6,1.74 c 1.14,4.78 1.93,7.87 2.6,10.37 a 77.27,77.27 0 0 0 -27.21,2.17 H 5.81 a 2.43,2.43 0 0 0 -1.81,1.9 c -0.91,5.14 -1.86,10.16 -2.39,15 a 73.3,73.3 0 0 0 -0.29,14 48.89,48.89 0 0 0 2.4,11.92 c 0.31,0.88 0.67,1.71 1,2.54 a 20.6,20.6 0 0 0 1.07,2.34 c 0.38,0.74 0.72,1.48 1.12,2.15 l 1.2,1.93 a 1.26,1.26 0 0 0 1.83,0.32 1.36,1.36 0 0 0 0.47,-1.67 l -1,-1.9 c -0.31,-0.66 -0.57,-1.37 -0.88,-2.09 a 19.4,19.4 0 0 1 -0.84,-2.24 c -0.24,-0.78 -0.53,-1.57 -0.76,-2.4 a 48.8,48.8 0 0 1 -1.6,-11.17 74.07,74.07 0 0 1 0.82,-13.11 c 0.58,-4.15 1.49,-8.49 2.42,-13.06 a 73.71,73.71 0 0 1 54.84,9.44 c -1.23,8.7 -2.48,17.11 -5.41,24.61 a 46.77,46.77 0 0 1 -5.9,10.94 l -1.86,2.36 -2,2.16 a 38,38 0 0 1 -4.33,3.72 22.66,22.66 0 0 1 -9.67,4 23.51,23.51 0 0 1 -9.57,-0.49 22.6,22.6 0 0 1 -7.72,-3.65 23.78,23.78 0 0 1 -5.24,-5.11 1.43,1.43 0 0 0 -1.92,-0.18 1.27,1.27 0 0 0 -0.35,1.64 25,25 0 0 0 5.46,6.19 25.22,25.22 0 0 0 8.67,4.71 26.69,26.69 0 0 0 23,-3.3 41.46,41.46 0 0 0 5.08,-4.12 l 2.35,-2.36 2.15,-2.6 a 50.75,50.75 0 0 0 6.77,-12 c 0.37,-0.91 0.7,-1.84 1,-2.77 a 25.75,25.75 0 0 0 15.31,-1 26.91,26.91 0 0 0 8.77,-5.62 26.44,26.44 0 0 0 1.94,-2 c 0.61,-0.72 1.18,-1.5 1.75,-2.28 0.57,-0.78 1.1,-1.64 1.51,-2.49 l 1.33,-2.58 a 46.61,46.61 0 0 0 3.58,-11.48 53.17,53.17 0 0 0 0.63,-12.47 c -0.46,-8.45 -2.6,-16.71 -4.57,-24.5800002 z M 93,41.324068 a 43.32,43.32 0 0 1 -2.92,10.29 l -1.08,2.34 c -0.35,0.8 -0.81,1.44 -1.2,2.16 -0.39,0.72 -0.9,1.33 -1.38,2 a 22.66,22.66 0 0 1 -1.54,1.76 23.68,23.68 0 0 1 -7.2,5.02 24.39,24.39 0 0 1 -12.88,2 114.57,114.57 0 0 0 3.29,-15.28 8.3,8.3 0 0 0 3.17,0.56 11.73,11.73 0 0 0 5.46,-1.5 11.49,11.49 0 0 0 4.14,-3.89 7.7,7.7 0 0 0 1.25,-3.94 4.88,4.88 0 0 0 -1.29,-0.69 5.39,5.39 0 0 0 -1.21,-0.44 25.93,25.93 0 0 0 -2.46,2 21.09,21.09 0 0 1 -3.15,2.12 23.11,23.11 0 0 1 -3.48,1.56 l -1.93,0.66 0.47,-3.2 a 2.76,2.76 0 0 0 -1.21,-2.69 76.66,76.66 0 0 0 -17.09,-8.43 v 0 a 7.33,7.33 0 0 0 1.23,-0.35 7.35,7.35 0 0 1 1.23,-1.87 3.6,3.6 0 0 1 4,-0.9 7.33,7.33 0 0 1 1.93,1.18 8.44,8.44 0 0 0 1.42,-0.25 3.59,3.59 0 0 0 1.18,-0.38 4.94,4.94 0 0 0 -1.52,-4.27 6.91,6.91 0 0 0 -11.23,2.48 5.39,5.39 0 0 0 0,3.73 76,76 0 0 0 -11.76,-2.77 l -1.24,-0.15 c -0.39,-2.52 -0.9,-5.52 -1.78,-10.23 a 78.6,78.6 0 0 1 23.64,-10.5300002 75.76,75.76 0 0 1 31.41,-1.24 c 1.83,7.3800002 3.62,14.6600002 4.11,21.8400002 a 49.82,49.82 0 0 1 -0.38,11.3 z"
     id="path526"
     inkscape:connector-curvature="0" />
  <path
     d="m 28.51,49.324068 a 7.14,7.14 0 0 0 -7.64,-1.31 6.76,6.76 0 0 0 -2.87,2.32 6,6 0 0 0 -1.1,2.89 4.62,4.62 0 0 0 0.23,1.94 5.15,5.15 0 0 0 1.43,0.35 4.29,4.29 0 0 0 1.28,0.11 c 0.3,-0.36 0.61,-1 0.86,-1.29 a 4.32,4.32 0 0 1 0.94,-0.84 3.18,3.18 0 0 1 4.4,0.74 4.33,4.33 0 0 1 0.62,1.12 c 0.16,0.32 0.22,1.07 0.39,1.51 a 5.05,5.05 0 0 0 1.4,0.35 4.15,4.15 0 0 0 1.24,0.1 6.46,6.46 0 0 0 0.45,-0.68 4,4 0 0 0 0.42,-1.06 6,6 0 0 0 -0.07,-3.09 6.75,6.75 0 0 0 -1.98,-3.16 z"
     id="path528"
     inkscape:connector-curvature="0" />
  <path
     d="m 39.94,59.064068 c 0.3,-0.36 0.61,-1 0.86,-1.29 a 4.32,4.32 0 0 1 0.94,-0.84 3.18,3.18 0 0 1 4.4,0.74 4.33,4.33 0 0 1 0.62,1.12 c 0.16,0.32 0.22,1.07 0.39,1.51 a 5.06,5.06 0 0 0 1.4,0.35 4.15,4.15 0 0 0 1.24,0.1 6.46,6.46 0 0 0 0.45,-0.68 4,4 0 0 0 0.42,-1.06 6,6 0 0 0 -0.08,-3.12 6.75,6.75 0 0 0 -1.95,-3.15 7.14,7.14 0 0 0 -7.63,-1.3 6.76,6.76 0 0 0 -2.89,2.32 6,6 0 0 0 -1.11,2.9 4.62,4.62 0 0 0 0.23,1.94 5.15,5.15 0 0 0 1.43,0.35 4.28,4.28 0 0 0 1.28,0.11 z"
     id="path530"
     inkscape:connector-curvature="0" />
</svg>
