<?xml version="1.0" encoding="UTF-8" standalone="no"?>
<svg
   xmlns:dc="http://purl.org/dc/elements/1.1/"
   xmlns:cc="http://creativecommons.org/ns#"
   xmlns:rdf="http://www.w3.org/1999/02/22-rdf-syntax-ns#"
   xmlns:svg="http://www.w3.org/2000/svg"
   xmlns="http://www.w3.org/2000/svg"
   xmlns:sodipodi="http://sodipodi.sourceforge.net/DTD/sodipodi-0.dtd"
   xmlns:inkscape="http://www.inkscape.org/namespaces/inkscape"
   version="1.1"
   x="0px"
   y="0px"
   viewBox="0 0 100 100"
   xml:space="preserve"
   id="svg556"
   sodipodi:docname="TV.svg"
   width="100"
   height="100"
   inkscape:version="0.92.4 5da689c313, 2019-01-14"><metadata
     id="metadata562"><rdf:RDF><cc:Work
         rdf:about=""><dc:format>image/svg+xml</dc:format><dc:type
           rdf:resource="http://purl.org/dc/dcmitype/StillImage" /><dc:title></dc:title></cc:Work></rdf:RDF></metadata><defs
     id="defs560" /><sodipodi:namedview
     pagecolor="#ffffff"
     bordercolor="#666666"
     borderopacity="1"
     objecttolerance="10"
     gridtolerance="10"
     guidetolerance="10"
     inkscape:pageopacity="0"
     inkscape:pageshadow="2"
     inkscape:window-width="817"
     inkscape:window-height="627"
     id="namedview558"
     showgrid="false"
     inkscape:zoom="1.888"
     inkscape:cx="50"
     inkscape:cy="62.5"
     inkscape:window-x="0"
     inkscape:window-y="0"
     inkscape:window-maximized="0"
     inkscape:current-layer="svg556" /><g
     id="g550"
     transform="translate(0.52966102,1.4830508)"><path
       d="M 5.4,71.6 V 21 c 0,-1.7 1.4,-3.1 3.1,-3.1 h 83.2 c 1.7,0 3.1,1.4 3.1,3.1 v 50.6 c 0,1.7 -1.4,3.1 -3.1,3.1 H 8.5 C 6.7,74.6 5.4,73.3 5.4,71.6 Z M 89.6,21.5 H 10.5 c -0.8,0 -1.4,0.6 -1.4,1.4 v 46.8 c 0,0.8 0.6,1.4 1.4,1.4 h 79.1 c 0.8,0 1.4,-0.6 1.4,-1.4 V 22.9 c 0,-0.8 -0.7,-1.4 -1.4,-1.4 z"
       id="path544"
       inkscape:connector-curvature="0" /><path
       d="m 73.6,78.6 c 1,0 1.8,0.8 1.8,1.8 v 0 c 0,1 -0.8,1.7 -1.8,1.7 H 26.7 c -1.2,0 -2.1,-0.5 -2.1,-1.7 0,-1.4 0.9,-1.8 2.2,-1.8 z"
       id="path546"
       inkscape:connector-curvature="0" /><path
       d="m 42.4,35 c 0.3,0.2 0.7,0.4 1.1,0.6 6,3.5 12.1,6.9 18.1,10.4 1.9,1.1 1.9,1.9 -0.1,3 -6,3.5 -11.9,6.9 -17.9,10.3 -1.9,1.1 -2.6,0.7 -2.6,-1.5 0,-7 0,-13.9 0,-20.9 0,-0.9 0,-1.8 1.4,-1.9 z"
       id="path548"
       inkscape:connector-curvature="0" /></g></svg>